<?xml version="1.0" encoding="UTF-8"?>
<!-- Created with Inkscape (http://www.inkscape.org/) -->
<svg width="272.42" height="112.08" version="1.1" viewBox="0 0 272.42 112.08" xml:space="preserve" xmlns="http://www.w3.org/2000/svg" xmlns:cc="http://creativecommons.org/ns#" xmlns:dc="http://purl.org/dc/elements/1.1/" xmlns:rdf="http://www.w3.org/1999/02/22-rdf-syntax-ns#"><metadata><rdf:RDF><cc:Work rdf:about=""><dc:format>image/svg+xml</dc:format><dc:type rdf:resource="http://purl.org/dc/dcmitype/StillImage"/><dc:title/></cc:Work></rdf:RDF></metadata><defs><clipPath id="clipPath604"><path d="m3182.3 4108.1c56.14-21.78 114.23-39.65 172.87-53.32 218.5-50.94 421.4-174.87 568.77-366.65 132.7-172.68 200.68-374.7 207.78-576.93 274.63 565.71-223.16 1126.6-893.55 1852.1-765.41 828.42 162.71 1726.6 162.71 1726.6-1338.6-841.99-1217.6-2194.4-218.58-2581.8z"/></clipPath><linearGradient id="linearGradient614" x2="1" gradientTransform="matrix(2008.3 -2613.5 -2613.5 -2008.3 2627.1 6111.8)" gradientUnits="userSpaceOnUse"><stop stop-color="#fbcd29" offset="0"/><stop stop-color="#fbcd29" offset=".017518"/><stop stop-color="#f8a62d" offset=".3512"/><stop stop-color="#f14624" offset="1"/></linearGradient><clipPath id="clipPath624"><path d="m2955.3 4017.1c59.98-5.09 120.77-5.89 180.86-2.51 224.01 12.64 453.6-49.17 649.01-191.71 175.94-128.34 298.03-303.06 361.78-495.11 104.28 620.14-531.26 1018.2-1378.8 1525.7-967.65 579.46-329.9 1702.6-329.9 1702.6-1047.5-1184.8-550.65-2448.4 517.03-2539z"/></clipPath><linearGradient id="linearGradient634" x2="1" gradientTransform="matrix(2662.8 -1942.3 -1942.3 -2662.8 1858.6 5783.4)" gradientUnits="userSpaceOnUse"><stop stop-color="#fbcd29" offset="0"/><stop stop-color="#fbcd29" offset=".017518"/><stop stop-color="#f8a62d" offset=".3512"/><stop stop-color="#f14624" offset="1"/></linearGradient><clipPath id="clipPath644"><path d="m2763.1 3865.8c58.99 12.01 117.53 28.35 174.25 48.52 211.39 75.17 449.09 80.49 676.71-1.28 204.95-73.63 371.29-206.91 486.52-373.25-74.5 624.41-796.39 827.46-1752.5 1075.9-1091.6 283.64-795.83 1540.9-795.83 1540.9-671.6-1431.7 160.82-2504.4 1210.8-2290.8h0.03z"/></clipPath><linearGradient id="linearGradient654" x2="1" gradientTransform="matrix(3101.9 -1114.4 -1114.4 -3101.9 1213.5 5252)" gradientUnits="userSpaceOnUse"><stop stop-color="#fbcd29" offset="0"/><stop stop-color="#fbcd29" offset=".017518"/><stop stop-color="#f8a62d" offset=".3512"/><stop stop-color="#f14624" offset="1"/></linearGradient><clipPath id="clipPath664"><path d="m2621.2 3666.6c53.24 28.12 104.81 60.28 153.56 95.6 181.68 131.64 408.27 203.66 649.71 189.27 217.39-12.95 414.53-94.03 571.92-221.21-247.26 578.2-997.11 569.83-1984.5 539.08-1127.3-35.13-1197.4 1254.6-1197.4 1254.6-241.43-1562.9 859.28-2357.8 1806.7-1857.3z"/></clipPath><linearGradient id="linearGradient674" x2="1" gradientTransform="matrix(3290.1 -196.12 -196.12 -3290.1 744.06 4560.5)" gradientUnits="userSpaceOnUse"><stop stop-color="#fbcd29" offset="0"/><stop stop-color="#fbcd29" offset=".017518"/><stop stop-color="#f8a62d" offset=".3512"/><stop stop-color="#f14624" offset="1"/></linearGradient><clipPath id="clipPath684"><path d="m2541.2 3435.5c43.15 41.97 83.61 87.37 120.44 134.98 137.28 177.45 334.43 310.34 570.16 364.5 212.25 48.76 424.23 26.46 611.06-51.28-400.02 485.22-1117.2 266.11-2056-41.34-1071.9-351.04-1502.1 866.77-1502.1 866.77 208.26-1567.6 1488.2-2020.6 2256.5-1273.6z"/></clipPath><linearGradient id="linearGradient694" x2="1" gradientTransform="matrix(3212.3 737.98 737.98 -3212.3 488.29 3764.8)" gradientUnits="userSpaceOnUse"><stop stop-color="#fbcd29" offset="0"/><stop stop-color="#fbcd29" offset=".017518"/><stop stop-color="#f8a62d" offset=".3512"/><stop stop-color="#f14624" offset="1"/></linearGradient><clipPath id="clipPath704"><path d="m2529.4 3191.2c29.61 52.42 55.64 107.35 77.59 163.42 81.77 208.92 233.55 391.93 444.49 510.25 189.94 106.54 399.63 144.81 600.79 122.81-520.43 353-1146.9-59.13-1961.2-618.42-929.71-638.57-1685.4 408.88-1685.4 408.88 641.11-1445.6 1996.9-1520 2523.7-586.94z"/></clipPath><linearGradient id="linearGradient714" x2="1" gradientTransform="matrix(2874.7 1612.4 1612.4 -2874.7 466.84 2929.3)" gradientUnits="userSpaceOnUse"><stop stop-color="#fbcd29" offset="0"/><stop stop-color="#fbcd29" offset=".017518"/><stop stop-color="#f8a62d" offset=".3512"/><stop stop-color="#f14624" offset="1"/></linearGradient><clipPath id="clipPath724"><path d="m2586.9 2953.4c13.65 58.63 23.17 118.67 28.44 178.64 19.66 223.5 113.78 441.83 282.89 614.75 152.27 155.7 342.71 251.45 541.92 286.96-598.74 192.23-1083.9-379.59-1707.8-1145.5-712.36-874.45-1732.3-82.08-1732.3-82.08 1022.1-1206.7 2344-896.41 2586.9 147.21z"/></clipPath><linearGradient id="linearGradient734" x2="1" gradientTransform="matrix(2304.6 2356.4 2356.4 -2304.6 681.44 2121.5)" gradientUnits="userSpaceOnUse"><stop stop-color="#fbcd29" offset="0"/><stop stop-color="#fbcd29" offset=".017518"/><stop stop-color="#f8a62d" offset=".3512"/><stop stop-color="#f14624" offset="1"/></linearGradient><clipPath id="clipPath744"><path d="m2709 2741.4c-3.41 60.11-11.17 120.39-23 179.43-44.05 219.99-15.19 455.99 98.41 669.52 102.28 192.26 258.07 337.75 439.22 427.9-628.64 15.91-933.21-669.35-1316.3-1579.9-437.4-1039.6-1639.2-566.39-1639.2-566.39 1320.5-870.17 2501.5-200.35 2440.9 869.45z"/></clipPath><linearGradient id="linearGradient754" x2="1" gradientTransform="matrix(1548.2 2909.8 2909.8 -1548.2 1114.7 1406.8)" gradientUnits="userSpaceOnUse"><stop stop-color="#fbcd29" offset="0"/><stop stop-color="#fbcd29" offset=".017518"/><stop stop-color="#f8a62d" offset=".3512"/><stop stop-color="#f14624" offset="1"/></linearGradient><clipPath id="clipPath764"><path d="m2885.8 2572.4c-20.19 56.73-44.61 112.38-72.57 165.7-104.2 198.7-142.94 433.28-94.04 670.15 44.02 213.28 152.56 396.73 301.01 534.24-607.7-161.69-707.06-904.98-818.36-1886.6-127.07-1120.7-1413.4-1004.9-1413.4-1004.9 1512-463.28 2456.8 511.92 2097.4 1521.4z"/></clipPath><linearGradient id="linearGradient774" x2="1" gradientTransform="matrix(666.41 3227.9 3227.9 -666.41 1731.7 843.04)" gradientUnits="userSpaceOnUse"><stop stop-color="#fbcd29" offset="0"/><stop stop-color="#fbcd29" offset=".017518"/><stop stop-color="#f8a62d" offset=".3512"/><stop stop-color="#f14624" offset="1"/></linearGradient><clipPath id="clipPath784"><path d="m3103.1 2460c-35.34 48.75-74.45 95.28-116.29 138.57-155.91 161.34-259.12 375.52-278.87 616.58-17.79 217.05 34.71 423.63 138.45 597.37-537.61-326.22-423.72-1067.4-254.21-2040.6 193.54-1111.2-1073.4-1362.2-1073.4-1362.2 1581.3-18.918 2213.3 1182.8 1584.3 2050.3z"/></clipPath><linearGradient id="linearGradient794" x2="1" gradientTransform="matrix(-269.27 3284.9 3284.9 269.27 2482.5 475.73)" gradientUnits="userSpaceOnUse"><stop stop-color="#fbcd29" offset="0"/><stop stop-color="#fbcd29" offset=".017518"/><stop stop-color="#f8a62d" offset=".3512"/><stop stop-color="#f14624" offset="1"/></linearGradient><clipPath id="clipPath804"><path d="m3343.2 2413.3c-47.62 36.82-98.28 70.49-150.6 100.24-195.01 110.92-354.34 287.39-441.15 513.14-78.17 203.26-85.94 416.27-35.3 612.18-424.04-464.36-106.12-1143.5 330.49-2029.7 498.5-1011.7-646.58-1609.2-646.58-1609.2 1522.7 426.96 1790.9 1758 943.14 2413.3z"/></clipPath><linearGradient id="linearGradient814" x2="1" gradientTransform="matrix(-1182.9 3076.4 3076.4 1182.9 3306.2 334.52)" gradientUnits="userSpaceOnUse"><stop stop-color="#fbcd29" offset="0"/><stop stop-color="#fbcd29" offset=".017518"/><stop stop-color="#f8a62d" offset=".3512"/><stop stop-color="#f14624" offset="1"/></linearGradient></defs><g transform="matrix(1.3333 0 0 -1.3333 -44.098 789.53)"><g transform="scale(.1)"><g transform="matrix(.11593 0 0 .11593 330.74 5145.9)"><g clip-path="url(#clipPath604)"><path d="m3182.3 4108.1c56.14-21.78 114.23-39.65 172.87-53.32 218.5-50.94 421.4-174.87 568.77-366.65 132.7-172.68 200.68-374.7 207.78-576.93 274.63 565.71-223.16 1126.6-893.55 1852.1-765.41 828.42 162.71 1726.6 162.71 1726.6-1338.6-841.99-1217.6-2194.4-218.58-2581.8" fill="url(#linearGradient614)"/></g><g clip-path="url(#clipPath624)"><path d="m2955.3 4017.1c59.98-5.09 120.77-5.89 180.86-2.51 224.01 12.64 453.6-49.17 649.01-191.71 175.94-128.34 298.03-303.06 361.78-495.11 104.28 620.14-531.26 1018.2-1378.8 1525.7-967.65 579.46-329.9 1702.6-329.9 1702.6-1047.5-1184.8-550.65-2448.4 517.03-2539" fill="url(#linearGradient634)"/></g><g clip-path="url(#clipPath644)"><path d="m2763.1 3865.8c58.99 12.01 117.53 28.35 174.25 48.52 211.39 75.17 449.09 80.49 676.71-1.28 204.95-73.63 371.29-206.91 486.52-373.25-74.5 624.41-796.39 827.46-1752.5 1075.9-1091.6 283.64-795.83 1540.9-795.83 1540.9-671.6-1431.7 160.82-2504.4 1210.8-2290.8h0.03" fill="url(#linearGradient654)"/></g><g clip-path="url(#clipPath664)"><path d="m2621.2 3666.6c53.24 28.12 104.81 60.28 153.56 95.6 181.68 131.64 408.27 203.66 649.71 189.27 217.39-12.95 414.53-94.03 571.92-221.21-247.26 578.2-997.11 569.83-1984.5 539.08-1127.3-35.13-1197.4 1254.6-1197.4 1254.6-241.43-1562.9 859.28-2357.8 1806.7-1857.3" fill="url(#linearGradient674)"/></g><g clip-path="url(#clipPath684)"><path d="m2541.2 3435.5c43.15 41.97 83.61 87.37 120.44 134.98 137.28 177.45 334.43 310.34 570.16 364.5 212.25 48.76 424.23 26.46 611.06-51.28-400.02 485.22-1117.2 266.11-2056-41.34-1071.9-351.04-1502.1 866.77-1502.1 866.77 208.26-1567.6 1488.2-2020.6 2256.5-1273.6" fill="url(#linearGradient694)"/></g><g clip-path="url(#clipPath704)"><path d="m2529.4 3191.2c29.61 52.42 55.64 107.35 77.59 163.42 81.77 208.92 233.55 391.93 444.49 510.25 189.94 106.54 399.63 144.81 600.79 122.81-520.43 353-1146.9-59.13-1961.2-618.42-929.71-638.57-1685.4 408.88-1685.4 408.88 641.11-1445.6 1996.9-1520 2523.7-586.94" fill="url(#linearGradient714)"/></g><g clip-path="url(#clipPath724)"><path d="m2586.9 2953.4c13.65 58.63 23.17 118.67 28.44 178.64 19.66 223.5 113.78 441.83 282.89 614.75 152.27 155.7 342.71 251.45 541.92 286.96-598.74 192.23-1083.9-379.59-1707.8-1145.5-712.36-874.45-1732.3-82.08-1732.3-82.08 1022.1-1206.7 2344-896.41 2586.9 147.21" fill="url(#linearGradient734)"/></g><g clip-path="url(#clipPath744)"><path d="m2709 2741.4c-3.41 60.11-11.17 120.39-23 179.43-44.05 219.99-15.19 455.99 98.41 669.52 102.28 192.26 258.07 337.75 439.22 427.9-628.64 15.91-933.21-669.35-1316.3-1579.9-437.4-1039.6-1639.2-566.39-1639.2-566.39 1320.5-870.17 2501.5-200.35 2440.9 869.45" fill="url(#linearGradient754)"/></g><g clip-path="url(#clipPath764)"><path d="m2885.8 2572.4c-20.19 56.73-44.61 112.38-72.57 165.7-104.2 198.7-142.94 433.28-94.04 670.15 44.02 213.28 152.56 396.73 301.01 534.24-607.7-161.69-707.06-904.98-818.36-1886.6-127.07-1120.7-1413.4-1004.9-1413.4-1004.9 1512-463.28 2456.8 511.92 2097.4 1521.4" fill="url(#linearGradient774)"/></g><g clip-path="url(#clipPath784)"><path d="m3103.1 2460c-35.34 48.75-74.45 95.28-116.29 138.57-155.91 161.34-259.12 375.52-278.87 616.58-17.79 217.05 34.71 423.63 138.45 597.37-537.61-326.22-423.72-1067.4-254.21-2040.6 193.54-1111.2-1073.4-1362.2-1073.4-1362.2 1581.3-18.918 2213.3 1182.8 1584.3 2050.3" fill="url(#linearGradient794)"/></g><g clip-path="url(#clipPath804)"><path d="m3343.2 2413.3c-47.62 36.82-98.28 70.49-150.6 100.24-195.01 110.92-354.34 287.39-441.15 513.14-78.17 203.26-85.94 416.27-35.3 612.18-424.04-464.36-106.12-1143.5 330.49-2029.7 498.5-1011.7-646.58-1609.2-646.58-1609.2 1522.7 426.96 1790.9 1758 943.14 2413.3" fill="url(#linearGradient814)"/></g></g><flowRoot transform="matrix(11.419 0 0 -16.45 -4905.5 13694)" fill="#f5832a" font-family="'Bradley Hand ITC'" font-size="40.001px" letter-spacing="0px" stroke-width="1px" word-spacing="0px" style="font-feature-settings:normal;font-variant-caps:normal;font-variant-ligatures:normal;font-variant-numeric:normal;line-height:125%" xml:space="preserve"><flowRegion fill="#f5832a" font-family="'Bradley Hand ITC'" font-size="40.001px" style="font-feature-settings:normal;font-variant-caps:normal;font-variant-ligatures:normal;font-variant-numeric:normal"><rect x="502.45" y="476.41" width="156.35" height="45.435" fill="#f5832a" style="font-feature-settings:normal;font-variant-caps:normal;font-variant-ligatures:normal;font-variant-numeric:normal"/></flowRegion><flowPara>PARKY</flowPara></flowRoot></g></g></svg>
